# xmcd CD database file
#
# Track frame offsets:
#	150
#	48628
#	108794
#	141155
#	165974
#	201419
#	238179
#	300653
#	323558
#
# Disc length: 4732 seconds
#
# Revision: 0
# Processed by: cddbd v1.5.2PL0 Copyright (c) Steve Scherf et al.
# Submitted via: CDex 1.51
#
DISCID=75127a09
DTITLE=ONJ - On Jazz 20 ans
DYEAR=2007
DGENRE=Jazz
TTITLE0=François Jeanneau - Jazz lacrymogène
TTITLE1=Antoine Hervé - Sous les lofts de Paris
TTITLE2=Claude Barthélemy - Yes ! (But Brahms ?)
TTITLE3=Denis Badault - Cool Couches "le retour"
TTITLE4=Laurent Cugny - L'âge de Noé
TTITLE5=Didier Levallet - Passages
TTITLE6=Paolo Damiani - Charmediterranéen
TTITLE7=Claude Barthélemy - Giant Steps
TTITLE8=Franck Tortiller - Ouverture - part 2
EXTD=YEAR: 2007
EXTT0=
EXTT1=
EXTT2=
EXTT3=
EXTT4=
EXTT5=
EXTT6=
EXTT7=
EXTT8=
PLAYORDER=
